<svg width="614" height="256" viewBox="0 0 614 256" fill="none" xmlns="http://www.w3.org/2000/svg">
<g clip-path="url(#clip0_301_28)">
<mask id="mask0_301_28" style="mask-type:luminance" maskUnits="userSpaceOnUse" x="0" y="0" width="614" height="256">
<path d="M614 0H0V256H614V0Z" fill="white"/>
</mask>
<g mask="url(#mask0_301_28)">
<mask id="mask1_301_28" style="mask-type:luminance" maskUnits="userSpaceOnUse" x="0" y="0" width="614" height="256">
<path d="M614 0H0V256H614V0Z" fill="white"/>
</mask>
<g mask="url(#mask1_301_28)">
<path d="M470.094 0H143.906C64.429 0 0 26.8629 0 60V196C0 229.137 64.429 256 143.906 256H470.094C549.571 256 614 229.137 614 196V60C614 26.8629 549.571 0 470.094 0Z" fill="#5865F2"/>
<mask id="mask2_301_28" style="mask-type:luminance" maskUnits="userSpaceOnUse" x="31" y="51" width="200" height="155">
<path d="M231 51H31V205.93H231V51Z" fill="white"/>
</mask>
<g mask="url(#mask2_301_28)">
<path d="M200.308 64.7966C187.561 58.9476 173.892 54.6383 159.599 52.1701C159.339 52.1225 159.079 52.2415 158.945 52.4796C157.187 55.6064 155.239 59.6856 153.876 62.8918C138.503 60.5904 123.21 60.5904 108.153 62.8918C106.789 59.6143 104.771 55.6064 103.005 52.4796C102.871 52.2495 102.611 52.1305 102.35 52.1701C88.066 54.6304 74.396 58.9397 61.6411 64.7966C61.5307 64.8442 61.4361 64.9236 61.3732 65.0267C35.4449 103.763 28.3421 141.547 31.8265 178.863C31.8423 179.046 31.9447 179.22 32.0867 179.331C49.1934 191.894 65.7642 199.521 82.027 204.576C82.288 204.655 82.563 204.56 82.729 204.346C86.576 199.092 90.005 193.553 92.946 187.728C93.119 187.386 92.953 186.982 92.599 186.847C87.159 184.783 81.98 182.268 76.998 179.411C76.604 179.181 76.572 178.617 76.935 178.347C77.983 177.561 79.032 176.744 80.033 175.919C80.214 175.768 80.466 175.736 80.679 175.831C113.411 190.775 148.846 190.775 181.191 175.831C181.404 175.728 181.657 175.76 181.846 175.911C182.847 176.736 183.895 177.561 184.952 178.347C185.314 178.617 185.291 179.181 184.897 179.411C179.914 182.323 174.735 184.783 169.288 186.839C168.933 186.974 168.775 187.386 168.949 187.728C171.952 193.545 175.381 199.084 179.157 204.338C179.315 204.56 179.599 204.655 179.859 204.576C196.201 199.521 212.772 191.894 229.879 179.331C230.028 179.22 230.123 179.053 230.139 178.871C234.309 135.73 223.154 98.2554 200.568 65.0346C200.513 64.9236 200.419 64.8442 200.308 64.7966ZM97.834 156.142C87.979 156.142 79.859 147.095 79.859 135.984C79.859 124.873 87.822 115.826 97.834 115.826C107.924 115.826 115.965 124.953 115.807 135.984C115.807 147.095 107.845 156.142 97.834 156.142ZM164.29 156.142C154.435 156.142 146.316 147.095 146.316 135.984C146.316 124.873 154.278 115.826 164.29 115.826C174.38 115.826 182.421 124.953 182.264 135.984C182.264 147.095 174.38 156.142 164.29 156.142Z" fill="white"/>
</g>
</g>
<path d="M257.442 164.038H243V92H257.442V164.038ZM322.772 137.812C322.772 141.661 322.019 145.254 320.514 148.591C319.008 151.896 316.959 154.766 314.37 157.204C311.778 159.61 308.733 161.52 305.231 162.93C301.766 164.31 298.037 165 294.046 165C290.09 165 286.361 164.31 282.86 162.93C279.393 161.52 276.348 159.61 273.722 157.204C271.132 154.766 269.083 151.896 267.578 148.591C266.072 145.254 265.319 141.661 265.319 137.812C265.319 133.897 266.072 130.272 267.578 126.935C269.083 123.6 271.132 120.728 273.722 118.321C276.348 115.884 279.393 113.976 282.86 112.596C286.361 111.216 290.09 110.526 294.046 110.526C298.037 110.526 301.766 111.184 305.231 112.499C308.733 113.783 311.778 115.627 314.37 118.033C316.959 120.408 319.008 123.278 320.514 126.648C322.019 129.983 322.772 133.705 322.772 137.812ZM308.33 137.812C308.33 135.694 307.945 133.785 307.175 132.085C306.439 130.352 305.424 128.877 304.129 127.658C302.833 126.406 301.311 125.46 299.559 124.818C297.844 124.145 296.007 123.808 294.046 123.808C292.084 123.808 290.229 124.145 288.478 124.818C286.764 125.46 285.258 126.406 283.963 127.658C282.702 128.877 281.704 130.352 280.97 132.085C280.233 133.785 279.867 135.694 279.867 137.812C279.867 139.8 280.233 141.644 280.97 143.345C281.704 145.046 282.702 146.521 283.963 147.773C285.258 149.024 286.764 150.018 288.478 150.756C290.229 151.461 292.084 151.814 294.046 151.814C296.007 151.814 297.844 151.478 299.559 150.804C301.311 150.131 302.833 149.184 304.129 147.964C305.424 146.746 306.439 145.269 307.175 143.539C307.945 141.805 308.33 139.897 308.33 137.812ZM344.987 164.038L323.561 112.499H339.892L352.181 144.644L364.417 112.499H380.802L359.376 164.038H344.987ZM406.954 151.429C407.516 151.591 408.075 151.703 408.635 151.766C409.196 151.799 409.756 151.814 410.315 151.814C411.717 151.814 413.065 151.638 414.36 151.286C415.656 150.933 416.863 150.436 417.984 149.794C419.138 149.119 420.155 148.318 421.03 147.388C421.94 146.424 422.676 145.366 423.235 144.211L433.738 153.884C432.407 155.616 430.868 157.173 429.117 158.552C427.401 159.931 425.529 161.103 423.497 162.065C421.503 163.027 419.383 163.748 417.143 164.23C414.937 164.743 412.661 165 410.315 165C406.36 165 402.632 164.327 399.13 162.978C395.665 161.632 392.618 159.755 389.993 157.348C387.402 154.943 385.353 152.088 383.847 148.783C382.343 145.446 381.59 141.789 381.59 137.812C381.59 133.737 382.343 130.015 383.847 126.648C385.353 123.278 387.402 120.408 389.993 118.033C392.618 115.659 395.665 113.814 399.13 112.499C402.632 111.184 406.36 110.526 410.315 110.526C412.661 110.526 414.955 110.784 417.195 111.296C419.437 111.809 421.555 112.547 423.551 113.511C425.581 114.472 427.472 115.659 429.221 117.071C430.972 118.451 432.513 120.006 433.843 121.738L406.954 151.429ZM414.308 124.338C413.643 124.113 412.977 123.968 412.312 123.905C411.682 123.84 411.016 123.808 410.315 123.808C408.356 123.808 406.501 124.145 404.75 124.818C403.034 125.46 401.528 126.39 400.232 127.61C398.972 128.828 397.975 130.305 397.239 132.037C396.505 133.737 396.137 135.662 396.137 137.812C396.137 138.292 396.154 138.837 396.189 139.447C396.26 140.057 396.347 140.682 396.451 141.324C396.592 141.934 396.75 142.527 396.925 143.104C397.1 143.682 397.327 144.196 397.607 144.644L414.308 124.338ZM471.97 164.038H439.2V150.949H471.97C472.95 150.949 473.79 150.628 474.491 149.986C475.192 149.344 475.541 148.574 475.541 147.676C475.541 146.746 475.192 146.136 474.491 145.848C473.79 145.559 472.95 145.414 471.97 145.414H457.056C454.57 145.414 452.241 144.981 450.071 144.114C447.9 143.249 446.01 142.079 444.4 140.602C442.788 139.094 441.511 137.347 440.565 135.357C439.656 133.368 439.2 131.235 439.2 128.957C439.2 126.68 439.656 124.546 440.565 122.556C441.511 120.568 442.788 118.836 444.4 117.36C446.01 115.884 447.9 114.729 450.071 113.896C452.241 113.029 454.57 112.596 457.056 112.596H486.097V125.685H457.056C456.076 125.685 455.236 126.005 454.535 126.648C453.834 127.288 453.484 128.058 453.484 128.957C453.484 129.887 453.834 130.69 454.535 131.363C455.236 132.005 456.076 132.325 457.056 132.325H471.97C474.42 132.325 476.731 132.71 478.902 133.48C481.074 134.218 482.964 135.26 484.574 136.609C486.184 137.955 487.463 139.576 488.407 141.469C489.353 143.361 489.826 145.431 489.826 147.676C489.826 149.954 489.353 152.088 488.407 154.076C487.463 156.033 486.184 157.766 484.574 159.273C482.964 160.75 481.074 161.92 478.902 162.787C476.731 163.62 474.42 164.038 471.97 164.038ZM551.953 164.038H548.486L542.92 156.963C541.554 158.086 540.102 159.145 538.561 160.14C537.055 161.103 535.462 161.953 533.781 162.69C532.101 163.395 530.368 163.957 528.583 164.375C526.832 164.792 525.046 165 523.226 165C519.27 165 515.541 164.39 512.04 163.172C508.573 161.953 505.528 160.188 502.902 157.878C500.312 155.536 498.263 152.681 496.758 149.313C495.252 145.944 494.499 142.11 494.499 137.812C494.499 133.802 495.252 130.128 496.758 126.791C498.263 123.423 500.312 120.536 502.902 118.13C505.528 115.724 508.573 113.863 512.04 112.547C515.541 111.201 519.27 110.526 523.226 110.526C525.046 110.526 526.849 110.734 528.635 111.152C530.42 111.569 532.153 112.146 533.833 112.884C535.514 113.622 537.107 114.489 538.613 115.483C540.154 116.478 541.589 117.551 542.92 118.706L548.486 112.596H551.953V164.038ZM537.51 137.812C537.51 136.015 537.125 134.282 536.354 132.615C535.62 130.915 534.605 129.422 533.309 128.14C532.013 126.823 530.491 125.781 528.74 125.011C527.024 124.208 525.187 123.808 523.226 123.808C521.265 123.808 519.409 124.113 517.66 124.723C515.944 125.332 514.438 126.23 513.143 127.417C511.882 128.605 510.884 130.08 510.15 131.845C509.414 133.577 509.046 135.565 509.046 137.812C509.046 140.057 509.414 142.062 510.15 143.827C510.884 145.559 511.882 147.019 513.143 148.206C514.438 149.393 515.944 150.291 517.66 150.901C519.409 151.511 521.265 151.814 523.226 151.814C525.187 151.814 527.024 151.429 528.74 150.659C530.491 149.858 532.013 148.816 533.309 147.532C534.605 146.216 535.62 144.724 536.354 143.057C537.125 141.357 537.51 139.607 537.51 137.812ZM591.129 164.038C587.664 164.038 584.407 163.445 581.362 162.257C578.315 161.038 575.638 159.386 573.325 157.301C571.05 155.183 569.247 152.729 567.917 149.938C566.622 147.147 565.975 144.164 565.975 140.987V125.685H558.989V112.596H565.975V92H580.259V112.596H602V125.685H580.259V140.987C580.259 142.367 580.538 143.666 581.099 144.884C581.659 146.072 582.429 147.114 583.408 148.013C584.39 148.911 585.544 149.633 586.875 150.179C588.206 150.691 589.623 150.949 591.129 150.949H602V164.038H591.129Z" fill="white"/>
</g>
</g>
<defs>
<clipPath id="clip0_301_28">
<rect width="614" height="256" fill="white"/>
</clipPath>
</defs>
</svg>
